<?xml version="1.0"?>
<svg version="1.1" xmlns="http://www.w3.org/2000/svg" width="373" height="80" style=""><path fill="#00ddbb" d="M16.75,70l0-4.25l3.75-1.5l0-23.6l-3.75-1.5l0-4.15l15.25-0.25l0,4.4l-3.75,1.5l0,8.6l3.4,0l8.35-14.25l9.25-0.25l0,4.4l-4.75,1.4l-6.55,10.9l9.3,12.8l3.75,1.5l0,4.25l-15.25,0l0-4.25l3-1.5l-6.85-9.5l-3.65,0l0,9.5l3.75,1.5l0,4.25l-15.25,0z M73.2755,70l-0.9-3.25s-3.85,3.75-8.1,3.75c-4.85,0-7.8-2.85-7.8-7.85c0-5.9,4.45-8.25,12.05-8.25l3.5,0l0-2.75c0-2.55-1.35-3.65-3.85-3.65c-2.55,0-4.4,0.75-4.4,0.75l-0.75,3.15l-4.5,0l-0.35-7.4s6.05-2,10.85-2c7.6,0,10.5,2.65,10.5,9.9l0,12.35l3.75,0.9l0,4z M72.0255,58.65l-2.85,0c-3.9,0-5.45,1-5.45,3.25c0,1.9,1.05,3,2.95,3c2.65,0,5.35-2.9,5.35-2.9l0-3.35z M100.551,64.75l4.5,1.25l0,4l-16.05,0l0-4l4-1.25l0-28.1l-4-1l0-4l11.55-0.4l0,33.5z M121.8765,64.75l3.5,1.25l0,4l-14.85,0l0-4l4-1.25l0-16.35l-4-1l0-4l11.35-0.4l0,21.75z M131.352,43.25l10.65-0.25l0.45,2.8s3.4-3.3,7.4-3.3c6.95,0,10.4,5.15,10.4,13.25c0,9.25-4.4,14.75-13.15,14.75c-1.45,0-2.95-0.2-4.25-0.5l0,6.35l4.75,1.15l0,4l-16.15,0l0-4l3.9-1.15l0-27.85l-4-1.25l0-4z M142.852,51.25l0,12.75c0.8,0.35,2,0.75,3.9,0.75c4.3,0,5.75-3,5.75-8.1c0-5.05-1.35-8.15-5-8.15c-3.25,0-4.65,2.75-4.65,2.75z M182.703,70l0-4.25l3.75-1.5l0-23.5l-3.75-1.5l0-4.25l11.5-0.25l4.75,0c7.65,0,12.15,4,12.15,10.5c0,8.4-5.15,12.5-14.25,12.5l-2.65,0l0,6.5l3.75,1.5l0,4.25l-15.25,0z M194.203,51.9l2.65,0c4.15,0,6.5-1.95,6.5-5.65c0-3.25-1.75-5.5-5.15-5.5l-4,0l0,11.15z M230.8285,42.5c8.1,0,12.6,4.9,12.6,13.5c0,9-5.25,14.5-13.35,14.5c-8.15,0-12.75-4.25-12.75-13.75c0-9,5.35-14.25,13.5-14.25z M230.5785,48.5c-3.65,0-5.5,2-5.5,8c0,5.5,1.6,8,5.25,8c3.6,0,5.35-2.25,5.35-8.25c0-5.1-1.5-7.75-5.1-7.75z M260.904,43l0.45,3.45s3.6-3.95,6.95-3.95c2.75,0,4.65,0.9,4.65,0.9l-0.4,9.6l-4.5,0l-0.75-4.25c-2.9,0-5.4,2.8-5.4,2.8l0,13.2l5,1.25l0,4l-16.5,0l0-4l4-1.25l0-16.25l-4-1.25l0-4z M296.1795,63.6l1.8,3.8c-2.45,1.8-5.25,3.1-8.5,3.1c-5.75,0-7.4-4-7.4-9.75l0-11.5l-4.65,0l0-4.85l4.65-0.65l0-6.9l7.5-1.35l0,8.25l7,0l0,5.5l-7,0l0,11c0,3.2,0.55,4.5,2.65,4.5c1.35,0,3.3-0.8,3.95-1.15z M320.755,70l-0.9-3.25s-3.85,3.75-8.1,3.75c-4.85,0-7.8-2.85-7.8-7.85c0-5.9,4.45-8.25,12.05-8.25l3.5,0l0-2.75c0-2.55-1.35-3.65-3.85-3.65c-2.55,0-4.4,0.75-4.4,0.75l-0.75,3.15l-4.5,0l-0.35-7.4s6.05-2,10.85-2c7.6,0,10.5,2.65,10.5,9.9l0,12.35l3.75,0.9l0,4z M319.505,58.65l-2.85,0c-3.9,0-5.45,1-5.45,3.25c0,1.9,1.05,3,2.95,3c2.65,0,5.35-2.9,5.35-2.9l0-3.35z M348.0305,64.75l4.5,1.25l0,4l-16.05,0l0-4l4-1.25l0-28.1l-4-1l0-4l11.55-0.4l0,33.5z M369.356,64.75l3.5,1.25l0,4l-14.85,0l0-4l4-1.25l0-16.35l-4-1l0-4l11.35-0.4l0,21.75z"/><path fill="#" d=""/></svg>
